# xmcd
#
# Track frame offsets: 
#        150
#        24465
#        44492
#        64330
#        86276
#        102694
#        127350
#        148663
#        165279
#        187084
#        210018
#        233404
#        253160
#
# Disc length: 3660 seconds
#
# Revision: 0
# Processed by: cddbd v1.5.2PL0 Copyright (c) Steve Scherf et al.
# Submitted via: ExactAudioCopyFreeDBPlugin 1.0
#
DISCID=b50e4a0d
DTITLE=林霞 - 林霞-吉祥謠
DYEAR=1900
DGENRE=中文流行曲
TTITLE0=夢見你旳那–夜
TTITLE1=夢回故鄉
TTITLE2=川藏路
TTITLE3=愛的天堂
TTITLE4=吉祥謠
TTITLE5=愛是你我
TTITLE6=大高原
TTITLE7=我从雪山來
TTITLE8=我們好好愛
TTITLE9=三千個祝福
TTITLE10=我的九寨
TTITLE11=鳳凰展翅
TTITLE12=佛
EXTD=
EXTT0=
EXTT1=
EXTT2=
EXTT3=
EXTT4=
EXTT5=
EXTT6=
EXTT7=
EXTT8=
EXTT9=
EXTT10=
EXTT11=
EXTT12=
PLAYORDER=
